<svg width="30" height="30" viewBox="0 0 30 30" fill="none" xmlns="http://www.w3.org/2000/svg">
<path d="M20.5303 15.5303C20.8232 15.2374 20.8232 14.7626 20.5303 14.4697L15.7574 9.6967C15.4645 9.40381 14.9896 9.40381 14.6967 9.6967C14.4038 9.98959 14.4038 10.4645 14.6967 10.7574L18.9393 15L14.6967 19.2426C14.4038 19.5355 14.4038 20.0104 14.6967 20.3033C14.9896 20.5962 15.4645 20.5962 15.7574 20.3033L20.5303 15.5303ZM10 14.25C9.58579 14.25 9.25 14.5858 9.25 15C9.25 15.4142 9.58579 15.75 10 15.75V14.25ZM20 14.25L10 14.25V15.75L20 15.75V14.25Z" fill="black"/>
<circle cx="15" cy="15" r="14.75" stroke="black" stroke-width="0.5"/>
</svg>
