<svg width="75" height="75" viewBox="0 0 75 75" fill="none" xmlns="http://www.w3.org/2000/svg">
<path d="M32.375 39.25C31.2625 39.25 30.1749 38.9201 29.2499 38.302C28.3249 37.6839 27.6039 36.8054 27.1782 35.7776C26.7524 34.7498 26.641 33.6188 26.8581 32.5276C27.0751 31.4365 27.6109 30.4342 28.3975 29.6475C29.1842 28.8609 30.1865 28.3251 31.2776 28.1081C32.3688 27.891 33.4998 28.0024 34.5276 28.4282C35.5554 28.8539 36.4339 29.5749 37.052 30.4999C37.6701 31.4249 38 32.5125 38 33.625C37.9983 35.1163 37.4052 36.5461 36.3506 37.6007C35.2961 38.6552 33.8663 39.2483 32.375 39.25ZM32.375 30.5C31.7569 30.5 31.1527 30.6833 30.6388 31.0267C30.1249 31.37 29.7244 31.8581 29.4879 32.4291C29.2514 33.0001 29.1895 33.6285 29.31 34.2347C29.4306 34.8409 29.7283 35.3977 30.1653 35.8347C30.6023 36.2718 31.1592 36.5694 31.7653 36.69C32.3715 36.8105 32.9999 36.7486 33.5709 36.5121C34.1419 36.2756 34.63 35.8751 34.9733 35.3612C35.3167 34.8473 35.5 34.2431 35.5 33.625C35.5 32.7962 35.1708 32.0013 34.5847 31.4153C33.9987 30.8292 33.2038 30.5 32.375 30.5ZM41.75 51.75V51.125C41.75 48.6386 40.7623 46.254 39.0041 44.4959C37.246 42.7377 34.8614 41.75 32.375 41.75C29.8886 41.75 27.504 42.7377 25.7459 44.4959C23.9877 46.254 23 48.6386 23 51.125L23 51.75C23 52.0815 23.1317 52.3995 23.3661 52.6339C23.6005 52.8683 23.9185 53 24.25 53C24.5815 53 24.8995 52.8683 25.1339 52.6339C25.3683 52.3995 25.5 52.0815 25.5 51.75V51.125C25.5 49.3016 26.2243 47.553 27.5136 46.2636C28.803 44.9743 30.5516 44.25 32.375 44.25C34.1984 44.25 35.947 44.9743 37.2364 46.2636C38.5257 47.553 39.25 49.3016 39.25 51.125V51.75C39.25 52.0815 39.3817 52.3995 39.6161 52.6339C39.8505 52.8683 40.1685 53 40.5 53C40.8315 53 41.1495 52.8683 41.3839 52.6339C41.6183 52.3995 41.75 52.0815 41.75 51.75ZM53 45.5C53 43.8109 52.511 42.1578 51.5921 40.7405C50.6733 39.3231 49.3638 38.202 47.8218 37.5125C46.2798 36.8229 44.5712 36.5945 42.9022 36.8547C41.2332 37.1149 39.6752 37.8526 38.4163 38.9788C38.2922 39.0878 38.191 39.2202 38.1184 39.3686C38.0459 39.5169 38.0035 39.6782 37.9936 39.843C37.9837 40.0078 38.0066 40.173 38.0609 40.3289C38.1153 40.4849 38.1999 40.6285 38.3101 40.7515C38.4202 40.8745 38.5536 40.9745 38.7027 41.0457C38.8517 41.1169 39.0133 41.1578 39.1782 41.1661C39.3431 41.1745 39.5081 41.1501 39.6635 41.0943C39.8189 41.0385 39.9618 40.9525 40.0837 40.8413C40.9831 40.037 42.0959 39.5103 43.288 39.3246C44.4801 39.1389 45.7004 39.3022 46.8018 39.7948C47.9031 40.2873 48.8383 41.0881 49.4945 42.1005C50.1508 43.1129 50.5 44.2935 50.5 45.5C50.5 45.8315 50.6317 46.1495 50.8661 46.3839C51.1005 46.6183 51.4185 46.75 51.75 46.75C52.0815 46.75 52.3995 46.6183 52.6339 46.3839C52.8683 46.1495 53 45.8315 53 45.5ZM44.875 34.25C43.7625 34.25 42.6749 33.9201 41.7499 33.302C40.8249 32.6839 40.1039 31.8054 39.6782 30.7776C39.2524 29.7498 39.141 28.6188 39.3581 27.5276C39.5751 26.4365 40.1109 25.4342 40.8975 24.6475C41.6842 23.8609 42.6865 23.3251 43.7776 23.1081C44.8688 22.891 45.9998 23.0024 47.0276 23.4282C48.0554 23.8539 48.9339 24.5749 49.552 25.4999C50.1701 26.4249 50.5 27.5125 50.5 28.625C50.4983 30.1163 49.9052 31.5461 48.8506 32.6007C47.7961 33.6552 46.3663 34.2483 44.875 34.25ZM44.875 25.5C44.2569 25.5 43.6527 25.6833 43.1388 26.0267C42.6249 26.37 42.2244 26.8581 41.9879 27.4291C41.7514 28.0001 41.6895 28.6285 41.81 29.2347C41.9306 29.8409 42.2283 30.3977 42.6653 30.8347C43.1023 31.2718 43.6592 31.5694 44.2653 31.69C44.8715 31.8105 45.4999 31.7486 46.0709 31.5121C46.6419 31.2756 47.13 30.8751 47.4733 30.3612C47.8167 29.8473 48 29.2431 48 28.625C48 27.7962 47.6708 27.0013 47.0847 26.4153C46.4987 25.8292 45.7038 25.5 44.875 25.5Z" fill="black"/>
<circle cx="37.5" cy="37.5" r="36.75" stroke="black" strokeWidth="1.5"/>
</svg>
