<svg width="60" height="30" viewBox="0 0 60 30" fill="none" xmlns="http://www.w3.org/2000/svg">
<path d="M8.45881 19.5V10.7727H11.5696C12.2486 10.7727 12.8111 10.8963 13.2571 11.1435C13.7031 11.3906 14.0369 11.7287 14.2585 12.1577C14.4801 12.5838 14.5909 13.0639 14.5909 13.598C14.5909 14.1349 14.4787 14.6179 14.2543 15.0469C14.0327 15.473 13.6974 15.8111 13.2486 16.0611C12.8026 16.3082 12.2415 16.4318 11.5653 16.4318H9.42614V15.3153H11.446C11.875 15.3153 12.223 15.2415 12.4901 15.0938C12.7571 14.9432 12.9531 14.7386 13.0781 14.4801C13.2031 14.2216 13.2656 13.9276 13.2656 13.598C13.2656 13.2685 13.2031 12.9759 13.0781 12.7202C12.9531 12.4645 12.7557 12.2642 12.4858 12.1193C12.2188 11.9744 11.8665 11.902 11.429 11.902H9.77557V19.5H8.45881ZM17.3065 10.7727V19.5H16.0323V10.7727H17.3065ZM23.1669 16.7855V12.9545H24.4453V19.5H23.1925V18.3665H23.1243C22.9737 18.7159 22.7322 19.0071 22.3999 19.2401C22.0703 19.4702 21.6598 19.5852 21.1683 19.5852C20.7479 19.5852 20.3757 19.4929 20.0518 19.3082C19.7308 19.1207 19.478 18.8438 19.2933 18.4773C19.1115 18.1108 19.0206 17.6577 19.0206 17.1179V12.9545H20.2947V16.9645C20.2947 17.4105 20.4183 17.7656 20.6655 18.0298C20.9126 18.294 21.2337 18.4261 21.6286 18.4261C21.8672 18.4261 22.1044 18.3665 22.3402 18.2472C22.5788 18.1278 22.7763 17.9474 22.9325 17.706C23.0916 17.4645 23.1697 17.1577 23.1669 16.7855ZM31.0621 14.5526L29.9073 14.7571C29.859 14.6094 29.7823 14.4687 29.6772 14.3352C29.5749 14.2017 29.4357 14.0923 29.2596 14.0071C29.0835 13.9219 28.8633 13.8793 28.5991 13.8793C28.2383 13.8793 27.9371 13.9602 27.6957 14.1222C27.4542 14.2812 27.3335 14.4872 27.3335 14.7401C27.3335 14.9588 27.4144 15.1349 27.5763 15.2685C27.7383 15.402 27.9996 15.5114 28.3604 15.5966L29.4002 15.8352C30.0025 15.9744 30.4513 16.1889 30.7468 16.4787C31.0423 16.7685 31.19 17.1449 31.19 17.608C31.19 18 31.0763 18.3494 30.8491 18.6562C30.6246 18.9602 30.3107 19.1989 29.9073 19.3722C29.5067 19.5455 29.0423 19.6321 28.5138 19.6321C27.7809 19.6321 27.1829 19.4759 26.7198 19.1634C26.2567 18.848 25.9727 18.4006 25.8675 17.821L27.0991 17.6335C27.1758 17.9545 27.3335 18.1974 27.5721 18.3622C27.8107 18.5241 28.1218 18.6051 28.5053 18.6051C28.9229 18.6051 29.2567 18.5185 29.5067 18.3452C29.7567 18.169 29.8817 17.9545 29.8817 17.7017C29.8817 17.4972 29.805 17.3253 29.6516 17.1861C29.5011 17.0469 29.2695 16.9418 28.957 16.8707L27.8491 16.6278C27.2383 16.4886 26.7866 16.267 26.494 15.9631C26.2042 15.6591 26.0593 15.2741 26.0593 14.8082C26.0593 14.4219 26.1673 14.0838 26.3832 13.794C26.5991 13.5043 26.8974 13.2784 27.2781 13.1165C27.6587 12.9517 28.0948 12.8693 28.5863 12.8693C29.2937 12.8693 29.8505 13.0227 30.2567 13.3295C30.663 13.6335 30.9315 14.0412 31.0621 14.5526Z" fill="black"/>
<path d="M53.0303 15.5303C53.3232 15.2374 53.3232 14.7626 53.0303 14.4697L48.2574 9.6967C47.9645 9.40381 47.4896 9.40381 47.1967 9.6967C46.9038 9.98959 46.9038 10.4645 47.1967 10.7574L51.4393 15L47.1967 19.2426C46.9038 19.5355 46.9038 20.0104 47.1967 20.3033C47.4896 20.5962 47.9645 20.5962 48.2574 20.3033L53.0303 15.5303ZM42.5 14.25C42.0858 14.25 41.75 14.5858 41.75 15C41.75 15.4142 42.0858 15.75 42.5 15.75V14.25ZM52.5 14.25L42.5 14.25V15.75L52.5 15.75V14.25Z" fill="black"/>
<rect x="0.25" y="0.25" width="59.5" height="29.5" rx="14.75" stroke="black" stroke-width="0.5"/>
</svg>
