<svg width="75" height="75" viewBox="0 0 75 75" fill="none" xmlns="http://www.w3.org/2000/svg">
<path d="M53.002 51.7519C53.002 52.0834 52.8703 52.4014 52.6359 52.6358C52.4015 52.8702 52.0835 53.0019 51.752 53.0019H24.252C23.9205 53.0019 23.6026 52.8702 23.3681 52.6358C23.1337 52.4014 23.002 52.0834 23.002 51.7519C23.002 51.4204 23.1337 51.1024 23.3681 50.868C23.6026 50.6336 23.9205 50.5019 24.252 50.5019H51.752C52.0835 50.5019 52.4015 50.6336 52.6359 50.868C52.8703 51.1024 53.002 51.4204 53.002 51.7519ZM23.3658 33.6919C23.0964 33.1923 22.9716 32.6275 23.0054 32.061C23.0392 31.4944 23.2302 30.9484 23.557 30.4844C24.0911 29.7008 24.8063 29.0576 25.642 28.6094L35.0183 23.7294C35.9398 23.2502 36.9633 23 38.002 23C39.0407 23 40.0642 23.2502 40.9858 23.7294L50.3608 28.6132C51.1965 29.0614 51.9117 29.7045 52.4458 30.4882C52.7726 30.9522 52.9636 31.4981 52.9974 32.0647C53.0311 32.6313 52.9064 33.1961 52.637 33.6957C52.347 34.2442 51.9121 34.7027 51.3796 35.0211C50.8471 35.3396 50.2375 35.5059 49.617 35.5019H49.252V45.5019H50.502C50.8335 45.5019 51.1515 45.6336 51.3859 45.868C51.6203 46.1024 51.752 46.4204 51.752 46.7519C51.752 47.0834 51.6203 47.4014 51.3859 47.6358C51.1515 47.8702 50.8335 48.0019 50.502 48.0019H25.502C25.1705 48.0019 24.8526 47.8702 24.6181 47.6358C24.3837 47.4014 24.252 47.0834 24.252 46.7519C24.252 46.4204 24.3837 46.1024 24.6181 45.868C24.8526 45.6336 25.1705 45.5019 25.502 45.5019H26.752V35.5019H26.387C25.766 35.5058 25.1558 35.339 24.623 35.0199C24.0902 34.7007 23.6553 34.2413 23.3658 33.6919ZM29.252 45.5019H33.002V35.5019H29.252V45.5019ZM35.502 35.5019V45.5019H40.502V35.5019H35.502ZM46.752 35.5019H43.002V45.5019H46.752V35.5019ZM25.5808 32.5332C25.6592 32.6777 25.7759 32.798 25.9181 32.8807C26.0603 32.9633 26.2225 33.0053 26.387 33.0019H49.617C49.7815 33.0053 49.9437 32.9633 50.0859 32.8807C50.2281 32.798 50.3448 32.6777 50.4233 32.5332C50.4804 32.4376 50.508 32.3273 50.5027 32.2161C50.4973 32.1049 50.4593 31.9978 50.3933 31.9082C50.0904 31.458 49.6835 31.0876 49.207 30.8282L39.832 25.9444C39.267 25.6512 38.6398 25.4981 38.0033 25.4981C37.3667 25.4981 36.7395 25.6512 36.1745 25.9444L26.7995 30.8282C26.3232 31.0884 25.9164 31.4592 25.6133 31.9094C25.5471 31.9987 25.5088 32.1054 25.503 32.2164C25.4972 32.3273 25.5243 32.4375 25.5808 32.5332Z" fill="black"/>
<circle cx="37.5" cy="37.5" r="36.75" stroke="black" stroke-width="1.5"/>
</svg>
