<svg width="75" height="75" viewBox="0 0 75 75" fill="none" xmlns="http://www.w3.org/2000/svg">
<path d="M44.8811 25C43.4735 25.0219 42.0966 25.4148 40.8895 26.1391C39.6824 26.8634 38.6878 27.8933 38.0061 29.125C37.3244 27.8933 36.3297 26.8634 35.1226 26.1391C33.9155 25.4148 32.5386 25.0219 31.1311 25C28.8872 25.0975 26.7732 26.0791 25.2508 27.7303C23.7284 29.3815 22.9214 31.5682 23.0061 33.8125C23.0061 39.4963 28.9886 45.7038 34.0061 49.9125C35.1263 50.8539 36.5427 51.37 38.0061 51.37C39.4694 51.37 40.8858 50.8539 42.0061 49.9125C47.0236 45.7038 53.0061 39.4963 53.0061 33.8125C53.0907 31.5682 52.2837 29.3815 50.7613 27.7303C49.2389 26.0791 47.1249 25.0975 44.8811 25ZM40.3998 48C39.7298 48.5642 38.882 48.8736 38.0061 48.8736C37.1301 48.8736 36.2823 48.5642 35.6123 48C29.1898 42.6112 25.5061 37.4413 25.5061 33.8125C25.4206 32.2309 25.964 30.6797 27.0178 29.4971C28.0715 28.3146 29.5501 27.5967 31.1311 27.5C32.712 27.5967 34.1906 28.3146 35.2443 29.4971C36.2981 30.6797 36.8415 32.2309 36.7561 33.8125C36.7561 34.144 36.8877 34.462 37.1222 34.6964C37.3566 34.9308 37.6745 35.0625 38.0061 35.0625C38.3376 35.0625 38.6555 34.9308 38.8899 34.6964C39.1244 34.462 39.2561 34.144 39.2561 33.8125C39.1706 32.2309 39.714 30.6797 40.7678 29.4971C41.8215 28.3146 43.3001 27.5967 44.8811 27.5C46.462 27.5967 47.9406 28.3146 48.9943 29.4971C50.0481 30.6797 50.5915 32.2309 50.5061 33.8125C50.5061 37.4413 46.8223 42.6112 40.3998 47.995V48Z" fill="black"/>
<circle cx="37.5" cy="37.5" r="36.75" stroke="black" strokeWidth="1.5"/>
</svg>
