<svg width="20" height="21" viewBox="0 0 20 21" fill="none" xmlns="http://www.w3.org/2000/svg">
<path d="M1 3.5C1 2.96957 1.21071 2.46086 1.58579 2.08579C1.96086 1.71071 2.46957 1.5 3 1.5H6.28C6.48979 1.50016 6.69422 1.5663 6.86436 1.68905C7.03449 1.8118 7.1617 1.98496 7.228 2.184L8.726 6.677C8.8019 6.90534 8.79293 7.15339 8.70072 7.37564C8.60851 7.5979 8.43925 7.77945 8.224 7.887L5.967 9.017C7.07332 11.4655 9.03446 13.4267 11.483 14.533L12.613 12.276C12.7205 12.0607 12.9021 11.8915 13.1244 11.7993C13.3466 11.7071 13.5947 11.6981 13.823 11.774L18.316 13.272C18.5152 13.3383 18.6885 13.4657 18.8112 13.636C18.934 13.8064 19.0001 14.011 19 14.221V17.5C19 18.0304 18.7893 18.5391 18.4142 18.9142C18.0391 19.2893 17.5304 19.5 17 19.5H16C7.716 19.5 1 12.784 1 4.5V3.5Z" stroke="black" stroke-width="2" stroke-linecap="round" stroke-linejoin="round"/>
</svg>
